<svg xmlns="http://www.w3.org/2000/svg" xmlns:xlink="http://www.w3.org/1999/xlink" width="177" zoomAndPan="magnify" viewBox="0 0 132.75 46.499999" height="62" preserveAspectRatio="xMidYMid meet" version="1.2"><defs><clipPath id="cb747973ac"><path d="M 5.214844 15.6875 L 51.960938 15.6875 L 51.960938 41.308594 L 5.214844 41.308594 Z M 5.214844 15.6875 "/></clipPath><clipPath id="daf6941f85"><path d="M 5.34375 38.324219 C 18.5625 16.175781 19.15625 15.816406 19.871094 15.816406 C 20.46875 15.9375 21.183594 16.175781 21.777344 17.128906 C 23.445312 19.507812 25.945312 33.082031 25.585938 35.941406 C 25.46875 36.894531 25.230469 37.371094 24.753906 37.609375 C 24.160156 37.964844 22.96875 37.964844 22.371094 37.609375 C 22.015625 37.371094 21.660156 36.894531 21.539062 36.417969 C 21.539062 35.703125 22.371094 34.988281 23.085938 33.679688 C 24.992188 30.820312 30.707031 21.175781 33.804688 19.152344 C 35.46875 18.082031 37.136719 17.484375 38.328125 18.320312 C 40.351562 19.507812 41.78125 27.84375 41.664062 30.226562 C 41.664062 31.179688 41.425781 31.773438 40.949219 32.132812 C 40.472656 32.609375 39.519531 32.84375 38.921875 32.726562 C 38.328125 32.609375 37.496094 32.132812 37.375 31.296875 C 37.019531 29.273438 41.664062 21.058594 43.925781 18.675781 C 45.234375 17.246094 46.78125 16.054688 47.734375 16.292969 C 48.570312 16.414062 49.164062 17.722656 49.640625 19.152344 C 50.832031 22.25 52.617188 32.84375 51.546875 35.109375 C 51.070312 36.0625 49.996094 36.535156 49.28125 36.535156 C 48.6875 36.535156 47.855469 35.941406 47.496094 35.347656 C 47.257812 34.871094 47.257812 33.917969 47.496094 33.320312 C 47.855469 32.84375 48.6875 32.132812 49.28125 32.132812 C 49.996094 32.25 51.546875 33.441406 51.664062 34.273438 C 51.785156 34.871094 50.832031 36.179688 50.234375 36.417969 C 49.519531 36.65625 48.332031 36.417969 47.617188 35.585938 C 45.949219 33.558594 43.925781 21.058594 45.234375 19.984375 C 45.710938 19.628906 47.496094 20.105469 47.734375 20.820312 C 48.332031 22.488281 41.664062 32.25 41.1875 32.011719 C 40.949219 32.011719 41.664062 29.75 41.542969 29.628906 C 41.425781 29.628906 40.710938 32.488281 39.996094 32.726562 C 39.28125 32.84375 37.734375 31.535156 36.898438 30.464844 C 35.945312 28.796875 35.113281 24.988281 35.46875 23.4375 C 35.707031 22.488281 37.019531 21.535156 37.019531 21.535156 C 37.136719 21.535156 27.96875 35.703125 25.113281 37.25 C 24.039062 37.964844 23.207031 38.203125 22.371094 37.609375 C 20.347656 36.179688 18.5625 23.320312 18.207031 19.746094 C 18.085938 18.320312 17.847656 17.484375 18.207031 16.769531 C 18.5625 16.292969 19.277344 15.699219 19.871094 15.816406 C 20.46875 16.054688 21.660156 17.128906 21.777344 18.4375 C 22.015625 22.128906 12.011719 37.609375 9.035156 40.109375 C 8.085938 40.941406 7.132812 41.417969 6.535156 41.179688 C 5.820312 40.941406 5.34375 38.324219 5.34375 38.324219 "/></clipPath><clipPath id="03658cc576"><path d="M 0.332031 0.6875 L 46.960938 0.6875 L 46.960938 26.308594 L 0.332031 26.308594 Z M 0.332031 0.6875 "/></clipPath><clipPath id="38355661ed"><path d="M 0.34375 23.324219 C 13.5625 1.175781 14.15625 0.816406 14.871094 0.816406 C 15.46875 0.9375 16.183594 1.175781 16.777344 2.128906 C 18.445312 4.507812 20.945312 18.082031 20.585938 20.941406 C 20.46875 21.894531 20.230469 22.371094 19.753906 22.609375 C 19.160156 22.964844 17.96875 22.964844 17.371094 22.609375 C 17.015625 22.371094 16.660156 21.894531 16.539062 21.417969 C 16.539062 20.703125 17.371094 19.988281 18.085938 18.679688 C 19.992188 15.820312 25.707031 6.175781 28.804688 4.152344 C 30.46875 3.082031 32.136719 2.484375 33.328125 3.320312 C 35.351562 4.507812 36.78125 12.84375 36.664062 15.226562 C 36.664062 16.179688 36.425781 16.773438 35.949219 17.132812 C 35.472656 17.609375 34.519531 17.84375 33.921875 17.726562 C 33.328125 17.609375 32.496094 17.132812 32.375 16.296875 C 32.019531 14.273438 36.664062 6.058594 38.925781 3.675781 C 40.234375 2.246094 41.78125 1.054688 42.734375 1.292969 C 43.570312 1.414062 44.164062 2.722656 44.640625 4.152344 C 45.832031 7.25 47.617188 17.84375 46.546875 20.109375 C 46.070312 21.0625 44.996094 21.535156 44.28125 21.535156 C 43.6875 21.535156 42.855469 20.941406 42.496094 20.347656 C 42.257812 19.871094 42.257812 18.917969 42.496094 18.320312 C 42.855469 17.84375 43.6875 17.132812 44.28125 17.132812 C 44.996094 17.25 46.546875 18.441406 46.664062 19.273438 C 46.785156 19.871094 45.832031 21.179688 45.234375 21.417969 C 44.519531 21.65625 43.332031 21.417969 42.617188 20.585938 C 40.949219 18.558594 38.925781 6.058594 40.234375 4.984375 C 40.710938 4.628906 42.496094 5.105469 42.734375 5.820312 C 43.332031 7.488281 36.664062 17.25 36.1875 17.011719 C 35.949219 17.011719 36.664062 14.75 36.542969 14.628906 C 36.425781 14.628906 35.710938 17.488281 34.996094 17.726562 C 34.28125 17.84375 32.734375 16.535156 31.898438 15.464844 C 30.945312 13.796875 30.113281 9.988281 30.46875 8.4375 C 30.707031 7.488281 32.019531 6.535156 32.019531 6.535156 C 32.136719 6.535156 22.96875 20.703125 20.113281 22.25 C 19.039062 22.964844 18.207031 23.203125 17.371094 22.609375 C 15.347656 21.179688 13.5625 8.320312 13.207031 4.746094 C 13.085938 3.320312 12.847656 2.484375 13.207031 1.769531 C 13.5625 1.292969 14.277344 0.699219 14.871094 0.816406 C 15.46875 1.054688 16.660156 2.128906 16.777344 3.4375 C 17.015625 7.128906 7.011719 22.609375 4.035156 25.109375 C 3.085938 25.941406 2.132812 26.417969 1.535156 26.179688 C 0.820312 25.941406 0.34375 23.324219 0.34375 23.324219 "/></clipPath><clipPath id="b5484c0513"><rect x="0" width="47" y="0" height="27"/></clipPath><clipPath id="a89b31324e"><path d="M 53.027344 14.863281 L 59.199219 14.863281 L 59.199219 38.972656 L 53.027344 38.972656 Z M 53.027344 14.863281 "/></clipPath><clipPath id="4a96a127ee"><path d="M 58.691406 16.921875 C 58.453125 38.472656 57.378906 38.949219 56.664062 38.949219 C 55.949219 38.832031 54.640625 37.878906 54.523438 37.042969 C 54.402344 36.328125 55.714844 34.425781 56.425781 34.304688 C 57.261719 34.1875 59.046875 35.617188 59.167969 36.328125 C 59.285156 37.042969 58.332031 38.59375 57.617188 38.832031 C 56.902344 38.949219 55.355469 38.472656 54.640625 37.28125 C 52.734375 34.542969 52.617188 20.136719 53.925781 16.921875 C 54.523438 15.730469 55.476562 14.898438 56.308594 14.898438 C 57.023438 14.777344 58.691406 16.921875 58.691406 16.921875 "/></clipPath><clipPath id="9ef74719d4"><path d="M 0.0273438 0.863281 L 6.199219 0.863281 L 6.199219 24.972656 L 0.0273438 24.972656 Z M 0.0273438 0.863281 "/></clipPath><clipPath id="5b47f8d2d7"><path d="M 5.691406 2.921875 C 5.453125 24.472656 4.378906 24.949219 3.664062 24.949219 C 2.949219 24.832031 1.640625 23.878906 1.523438 23.042969 C 1.402344 22.328125 2.714844 20.425781 3.425781 20.304688 C 4.261719 20.1875 6.046875 21.617188 6.167969 22.328125 C 6.285156 23.042969 5.332031 24.59375 4.617188 24.832031 C 3.902344 24.949219 2.355469 24.472656 1.640625 23.28125 C -0.265625 20.542969 -0.382812 6.136719 0.925781 2.921875 C 1.523438 1.730469 2.476562 0.898438 3.308594 0.898438 C 4.023438 0.777344 5.691406 2.921875 5.691406 2.921875 "/></clipPath><clipPath id="7fac268292"><rect x="0" width="7" y="0" height="25"/></clipPath><clipPath id="297272bd3c"><path d="M 60.945312 9.890625 L 82.585938 9.890625 L 82.585938 37.355469 L 60.945312 37.355469 Z M 60.945312 9.890625 "/></clipPath><clipPath id="a91a15eec2"><path d="M 77.023438 13.769531 C 66.953125 23.28125 65.050781 27.3125 64.9375 29.4375 C 64.828125 30.78125 65.273438 32.347656 65.835938 32.570312 C 66.730469 32.796875 69.976562 29.4375 70.199219 27.984375 C 70.3125 26.976562 68.746094 25.746094 68.746094 24.851562 C 68.855469 24.066406 69.304688 23.058594 70.085938 22.722656 C 71.09375 22.277344 73.445312 23.953125 75.234375 23.953125 C 77.023438 23.84375 79.375 21.828125 80.71875 22.277344 C 81.613281 22.613281 82.621094 24.289062 82.507812 25.074219 C 82.398438 25.632812 81.5 26.417969 80.832031 26.640625 C 80.269531 26.753906 79.261719 26.527344 78.816406 26.082031 C 78.367188 25.632812 78.03125 24.738281 78.144531 24.179688 C 78.257812 23.507812 78.816406 22.613281 79.375 22.386719 C 80.046875 22.277344 82.0625 22.949219 82.398438 23.617188 C 82.734375 24.179688 82.285156 25.746094 81.726562 26.191406 C 81.277344 26.640625 80.269531 26.753906 79.710938 26.527344 C 79.039062 26.417969 78.257812 25.632812 78.257812 25.074219 C 78.144531 24.289062 79.375 22.386719 80.160156 22.277344 C 80.832031 22.050781 82.0625 22.835938 82.398438 23.507812 C 82.621094 24.179688 82.398438 25.519531 81.5 26.304688 C 80.160156 27.648438 74.339844 28.992188 72.214844 28.429688 C 70.757812 28.09375 69.414062 26.863281 69.078125 25.855469 C 68.746094 24.960938 69.078125 23.394531 69.640625 22.949219 C 70.199219 22.5 71.765625 22.613281 72.550781 23.171875 C 73.445312 23.84375 74.675781 25.855469 74.5625 27.421875 C 74.5625 29.550781 71.878906 33.242188 70.3125 34.921875 C 69.304688 36.039062 67.960938 36.9375 66.953125 37.160156 C 66.171875 37.382812 65.273438 37.160156 64.605469 36.824219 C 63.707031 36.375 62.925781 35.367188 62.253906 34.363281 C 61.695312 33.464844 61.132812 32.570312 61.023438 31.339844 C 60.800781 29.550781 61.582031 26.976562 62.253906 24.851562 C 63.148438 22.613281 64.378906 20.148438 65.945312 18.136719 C 67.402344 16.121094 69.414062 14.105469 71.316406 12.765625 C 72.886719 11.53125 74.898438 9.855469 76.019531 9.964844 C 76.800781 10.078125 77.695312 10.863281 77.808594 11.53125 C 77.921875 12.203125 77.023438 13.769531 77.023438 13.769531 "/></clipPath><clipPath id="76249ee145"><path d="M 0.945312 0.890625 L 22.585938 0.890625 L 22.585938 28.355469 L 0.945312 28.355469 Z M 0.945312 0.890625 "/></clipPath><clipPath id="1e730e1d7b"><path d="M 17.023438 4.769531 C 6.953125 14.28125 5.050781 18.3125 4.9375 20.4375 C 4.828125 21.78125 5.273438 23.347656 5.835938 23.570312 C 6.730469 23.796875 9.976562 20.4375 10.199219 18.984375 C 10.3125 17.976562 8.746094 16.746094 8.746094 15.851562 C 8.855469 15.066406 9.304688 14.058594 10.085938 13.722656 C 11.09375 13.277344 13.445312 14.953125 15.234375 14.953125 C 17.023438 14.84375 19.375 12.828125 20.71875 13.277344 C 21.613281 13.613281 22.621094 15.289062 22.507812 16.074219 C 22.398438 16.632812 21.5 17.417969 20.832031 17.640625 C 20.269531 17.753906 19.261719 17.527344 18.816406 17.082031 C 18.367188 16.632812 18.03125 15.738281 18.144531 15.179688 C 18.257812 14.507812 18.816406 13.613281 19.375 13.386719 C 20.046875 13.277344 22.0625 13.949219 22.398438 14.617188 C 22.734375 15.179688 22.285156 16.746094 21.726562 17.191406 C 21.277344 17.640625 20.269531 17.753906 19.710938 17.527344 C 19.039062 17.417969 18.257812 16.632812 18.257812 16.074219 C 18.144531 15.289062 19.375 13.386719 20.160156 13.277344 C 20.832031 13.050781 22.0625 13.835938 22.398438 14.507812 C 22.621094 15.179688 22.398438 16.519531 21.5 17.304688 C 20.160156 18.648438 14.339844 19.992188 12.214844 19.429688 C 10.757812 19.09375 9.414062 17.863281 9.078125 16.855469 C 8.746094 15.960938 9.078125 14.394531 9.640625 13.949219 C 10.199219 13.5 11.765625 13.613281 12.550781 14.171875 C 13.445312 14.84375 14.675781 16.855469 14.5625 18.421875 C 14.5625 20.550781 11.878906 24.242188 10.3125 25.921875 C 9.304688 27.039062 7.960938 27.9375 6.953125 28.160156 C 6.171875 28.382812 5.273438 28.160156 4.605469 27.824219 C 3.707031 27.375 2.925781 26.367188 2.253906 25.363281 C 1.695312 24.464844 1.132812 23.570312 1.023438 22.339844 C 0.800781 20.550781 1.582031 17.976562 2.253906 15.851562 C 3.148438 13.613281 4.378906 11.148438 5.945312 9.136719 C 7.402344 7.121094 9.414062 5.105469 11.316406 3.765625 C 12.886719 2.53125 14.898438 0.855469 16.019531 0.964844 C 16.800781 1.078125 17.695312 1.863281 17.808594 2.53125 C 17.921875 3.203125 17.023438 4.769531 17.023438 4.769531 "/></clipPath><clipPath id="c855a50f9a"><rect x="0" width="23" y="0" height="29"/></clipPath><clipPath id="161bc7b025"><path d="M 83.757812 13.164062 L 99.074219 13.164062 L 99.074219 31.863281 L 83.757812 31.863281 Z M 83.757812 13.164062 "/></clipPath><clipPath id="86e042ec82"><path d="M 89.769531 15.847656 C 89.652344 27.398438 92.628906 23.351562 93.582031 21.089844 C 94.414062 18.945312 93.582031 15.253906 94.652344 14.183594 C 95.25 13.46875 96.914062 13.109375 97.628906 13.46875 C 98.34375 13.824219 99.058594 15.730469 98.703125 16.445312 C 98.34375 17.160156 95.960938 17.753906 95.25 17.515625 C 94.652344 17.277344 94.175781 16.207031 94.175781 15.492188 C 94.175781 14.898438 94.652344 13.824219 95.25 13.585938 C 95.960938 13.230469 97.988281 13.707031 98.464844 14.300781 C 98.9375 14.777344 98.9375 15.96875 98.582031 16.5625 C 98.34375 17.039062 97.511719 17.875 96.914062 17.875 C 96.082031 17.875 94.296875 16.5625 94.175781 15.730469 C 94.058594 15.136719 94.773438 13.824219 95.484375 13.46875 C 96.082031 13.109375 97.511719 13.230469 98.105469 13.824219 C 99.058594 14.777344 99.296875 18.230469 98.703125 20.613281 C 98.105469 23.589844 95.011719 27.996094 93.34375 29.78125 C 92.507812 30.734375 91.796875 31.328125 90.84375 31.566406 C 89.652344 31.925781 87.746094 31.925781 86.675781 31.328125 C 85.601562 30.734375 84.769531 29.660156 84.292969 28.234375 C 83.460938 25.496094 83.578125 17.515625 85.007812 15.136719 C 85.722656 13.945312 87.152344 12.992188 87.984375 13.230469 C 88.699219 13.347656 89.769531 15.847656 89.769531 15.847656 "/></clipPath><clipPath id="1d6001adb7"><path d="M 0.757812 0.164062 L 16.074219 0.164062 L 16.074219 18.863281 L 0.757812 18.863281 Z M 0.757812 0.164062 "/></clipPath><clipPath id="0a9a981b03"><path d="M 6.769531 2.847656 C 6.652344 14.398438 9.628906 10.351562 10.582031 8.089844 C 11.414062 5.945312 10.582031 2.253906 11.652344 1.183594 C 12.25 0.46875 13.914062 0.109375 14.628906 0.46875 C 15.34375 0.824219 16.058594 2.730469 15.703125 3.445312 C 15.34375 4.160156 12.960938 4.753906 12.25 4.515625 C 11.652344 4.277344 11.175781 3.207031 11.175781 2.492188 C 11.175781 1.898438 11.652344 0.824219 12.25 0.585938 C 12.960938 0.230469 14.988281 0.707031 15.464844 1.300781 C 15.9375 1.777344 15.9375 2.96875 15.582031 3.5625 C 15.34375 4.039062 14.511719 4.875 13.914062 4.875 C 13.082031 4.875 11.296875 3.5625 11.175781 2.730469 C 11.058594 2.136719 11.773438 0.824219 12.484375 0.46875 C 13.082031 0.109375 14.511719 0.230469 15.105469 0.824219 C 16.058594 1.777344 16.296875 5.230469 15.703125 7.613281 C 15.105469 10.589844 12.011719 14.996094 10.34375 16.78125 C 9.507812 17.734375 8.796875 18.328125 7.84375 18.566406 C 6.652344 18.925781 4.746094 18.925781 3.675781 18.328125 C 2.601562 17.734375 1.769531 16.660156 1.292969 15.234375 C 0.460938 12.496094 0.578125 4.515625 2.007812 2.136719 C 2.722656 0.945312 4.152344 -0.0078125 4.984375 0.230469 C 5.699219 0.347656 6.769531 2.847656 6.769531 2.847656 "/></clipPath><clipPath id="48044e5682"><rect x="0" width="17" y="0" height="19"/></clipPath><clipPath id="5e460d39fd"><path d="M 102.578125 14.285156 L 108.242188 14.285156 L 108.242188 30.761719 L 102.578125 30.761719 Z M 102.578125 14.285156 "/></clipPath><clipPath id="9187ea46bd"><path d="M 107.808594 16.5625 C 107.808594 30.019531 107.214844 30.496094 106.621094 30.613281 C 105.90625 30.734375 104.355469 30.136719 103.882812 29.542969 C 103.523438 29.066406 103.523438 27.996094 103.761719 27.398438 C 104.117188 26.683594 105.546875 25.96875 106.382812 25.96875 C 106.976562 26.089844 107.929688 26.683594 108.167969 27.28125 C 108.40625 27.996094 108.046875 29.660156 107.570312 30.136719 C 107.097656 30.613281 106.023438 30.851562 105.308594 30.613281 C 104.59375 30.375 104 29.542969 103.523438 28.351562 C 102.691406 25.96875 102.09375 17.875 103.167969 15.847656 C 103.644531 14.898438 104.714844 14.300781 105.429688 14.300781 C 106.261719 14.421875 107.808594 16.5625 107.808594 16.5625 "/></clipPath><clipPath id="2f3b494821"><path d="M 0.578125 0.285156 L 6.242188 0.285156 L 6.242188 16.761719 L 0.578125 16.761719 Z M 0.578125 0.285156 "/></clipPath><clipPath id="42617ec115"><path d="M 5.808594 2.5625 C 5.808594 16.019531 5.214844 16.496094 4.621094 16.613281 C 3.90625 16.734375 2.355469 16.136719 1.882812 15.542969 C 1.523438 15.066406 1.523438 13.996094 1.761719 13.398438 C 2.117188 12.683594 3.546875 11.96875 4.382812 11.96875 C 4.976562 12.089844 5.929688 12.683594 6.167969 13.28125 C 6.40625 13.996094 6.046875 15.660156 5.570312 16.136719 C 5.097656 16.613281 4.023438 16.851562 3.308594 16.613281 C 2.59375 16.375 2 15.542969 1.523438 14.351562 C 0.691406 11.96875 0.09375 3.875 1.167969 1.847656 C 1.644531 0.898438 2.714844 0.300781 3.429688 0.300781 C 4.261719 0.421875 5.808594 2.5625 5.808594 2.5625 "/></clipPath><clipPath id="e10cd291cc"><rect x="0" width="7" y="0" height="17"/></clipPath><clipPath id="aee64854c3"><path d="M 110.269531 13.089844 L 126.921875 13.089844 L 126.921875 39 L 110.269531 39 Z M 110.269531 13.089844 "/></clipPath><clipPath id="e7724761b1"><path d="M 119.65625 16.207031 C 113.703125 30.972656 112.988281 31.089844 112.394531 31.089844 C 111.679688 30.972656 110.847656 30.257812 110.488281 29.421875 C 110.011719 27.875 110.964844 24.542969 111.679688 22.160156 C 112.394531 19.898438 113.464844 17.039062 114.777344 15.492188 C 115.730469 14.300781 116.917969 12.992188 117.871094 13.109375 C 118.945312 13.109375 119.894531 14.660156 120.847656 16.445312 C 122.992188 20.375 127.875 34.304688 126.683594 37.28125 C 126.207031 38.355469 124.777344 39.070312 123.945312 38.832031 C 122.871094 38.59375 121.324219 36.089844 120.96875 34.78125 C 120.609375 33.949219 120.609375 32.757812 120.96875 32.28125 C 121.445312 31.6875 122.871094 31.449219 123.46875 31.6875 C 124.0625 31.804688 124.660156 32.636719 124.660156 33.234375 C 124.777344 33.828125 124.539062 34.664062 124.0625 35.140625 C 123.707031 35.496094 122.753906 35.734375 122.277344 35.617188 C 121.683594 35.496094 120.96875 34.902344 120.730469 34.425781 C 120.492188 33.828125 120.492188 32.875 120.847656 32.402344 C 121.324219 31.925781 122.515625 31.328125 123.230469 31.566406 C 124.421875 31.925781 126.800781 35.378906 126.683594 36.804688 C 126.683594 37.640625 125.613281 38.832031 124.898438 38.949219 C 124.300781 39.070312 123.347656 38.472656 122.636719 37.402344 C 120.730469 35.019531 117.753906 24.78125 117.632812 21.207031 C 117.632812 19.421875 118.707031 17.398438 118.707031 17.398438 C 118.585938 17.277344 115.964844 28.589844 114.300781 30.257812 C 113.703125 30.972656 112.988281 31.089844 112.394531 31.089844 C 111.679688 30.972656 110.726562 30.375 110.488281 29.421875 C 109.773438 26.921875 113.464844 16.324219 115.609375 14.300781 C 116.441406 13.46875 117.753906 13.109375 118.46875 13.46875 C 119.183594 13.707031 119.65625 16.207031 119.65625 16.207031 "/></clipPath><clipPath id="c4684f127c"><path d="M 0.269531 0.0898438 L 16.921875 0.0898438 L 16.921875 26 L 0.269531 26 Z M 0.269531 0.0898438 "/></clipPath><clipPath id="accd5e0fe5"><path d="M 9.65625 3.207031 C 3.703125 17.972656 2.988281 18.089844 2.394531 18.089844 C 1.679688 17.972656 0.847656 17.257812 0.488281 16.421875 C 0.0117188 14.875 0.964844 11.542969 1.679688 9.160156 C 2.394531 6.898438 3.464844 4.039062 4.777344 2.492188 C 5.730469 1.300781 6.917969 -0.0078125 7.871094 0.109375 C 8.945312 0.109375 9.894531 1.660156 10.847656 3.445312 C 12.992188 7.375 17.875 21.304688 16.683594 24.28125 C 16.207031 25.355469 14.777344 26.070312 13.945312 25.832031 C 12.871094 25.59375 11.324219 23.089844 10.96875 21.78125 C 10.609375 20.949219 10.609375 19.757812 10.96875 19.28125 C 11.445312 18.6875 12.871094 18.449219 13.46875 18.6875 C 14.0625 18.804688 14.660156 19.636719 14.660156 20.234375 C 14.777344 20.828125 14.539062 21.664062 14.0625 22.140625 C 13.707031 22.496094 12.753906 22.734375 12.277344 22.617188 C 11.683594 22.496094 10.96875 21.902344 10.730469 21.425781 C 10.492188 20.828125 10.492188 19.875 10.847656 19.402344 C 11.324219 18.925781 12.515625 18.328125 13.230469 18.566406 C 14.421875 18.925781 16.800781 22.378906 16.683594 23.804688 C 16.683594 24.640625 15.613281 25.832031 14.898438 25.949219 C 14.300781 26.070312 13.347656 25.472656 12.636719 24.402344 C 10.730469 22.019531 7.753906 11.78125 7.632812 8.207031 C 7.632812 6.421875 8.707031 4.398438 8.707031 4.398438 C 8.585938 4.277344 5.964844 15.589844 4.300781 17.257812 C 3.703125 17.972656 2.988281 18.089844 2.394531 18.089844 C 1.679688 17.972656 0.726562 17.375 0.488281 16.421875 C -0.226562 13.921875 3.464844 3.324219 5.609375 1.300781 C 6.441406 0.46875 7.753906 0.109375 8.46875 0.46875 C 9.183594 0.707031 9.65625 3.207031 9.65625 3.207031 "/></clipPath><clipPath id="38703749a9"><rect x="0" width="17" y="0" height="26"/></clipPath><clipPath id="506c5a8ee9"><path d="M 99 1 L 112 1 L 112 14 L 99 14 Z M 99 1 "/></clipPath><clipPath id="3f0438a566"><path d="M 98.710938 3.171875 L 110.046875 0.636719 L 112.710938 12.546875 L 101.378906 15.085938 Z M 98.710938 3.171875 "/></clipPath><clipPath id="376d211be9"><path d="M 104.59375 2.039062 L 105.652344 4.121094 C 105.726562 4.261719 105.867188 4.359375 106.027344 4.375 C 106.1875 4.390625 106.347656 4.320312 106.445312 4.195312 L 107.882812 2.339844 C 107.9375 2.269531 108.03125 2.246094 108.113281 2.28125 C 108.191406 2.316406 108.238281 2.398438 108.226562 2.488281 L 107.867188 4.804688 C 107.84375 4.960938 107.902344 5.125 108.023438 5.230469 C 108.144531 5.335938 108.3125 5.375 108.464844 5.328125 L 110.714844 4.675781 C 110.800781 4.652344 110.890625 4.6875 110.933594 4.765625 C 110.980469 4.839844 110.96875 4.9375 110.90625 4.996094 L 109.253906 6.667969 C 109.136719 6.78125 109.089844 6.945312 109.125 7.105469 C 109.164062 7.261719 109.277344 7.390625 109.429688 7.445312 L 111.628906 8.234375 C 111.710938 8.265625 111.761719 8.347656 111.753906 8.433594 C 111.746094 8.519531 111.679688 8.589844 111.59375 8.601562 L 109.28125 8.972656 C 109.121094 9 108.988281 9.105469 108.921875 9.253906 C 108.859375 9.402344 108.875 9.570312 108.964844 9.707031 L 110.277344 11.648438 C 110.324219 11.71875 110.320312 11.816406 110.261719 11.882812 C 110.203125 11.949219 110.109375 11.964844 110.03125 11.925781 L 107.9375 10.863281 C 107.792969 10.789062 107.625 10.792969 107.484375 10.875 C 107.347656 10.957031 107.257812 11.105469 107.253906 11.265625 L 107.1875 13.601562 C 107.183594 13.6875 107.121094 13.761719 107.039062 13.78125 C 106.953125 13.800781 106.867188 13.757812 106.828125 13.683594 L 105.769531 11.601562 C 105.695312 11.457031 105.554688 11.359375 105.394531 11.34375 C 105.234375 11.328125 105.078125 11.398438 104.976562 11.523438 L 103.539062 13.378906 C 103.484375 13.449219 103.390625 13.472656 103.3125 13.4375 C 103.230469 13.402344 103.183594 13.320312 103.199219 13.234375 L 103.554688 10.917969 C 103.582031 10.757812 103.523438 10.597656 103.402344 10.488281 C 103.28125 10.382812 103.113281 10.34375 102.957031 10.390625 L 100.707031 11.042969 C 100.625 11.066406 100.535156 11.03125 100.488281 10.957031 C 100.445312 10.882812 100.457031 10.785156 100.519531 10.722656 L 102.171875 9.070312 C 102.285156 8.957031 102.335938 8.789062 102.300781 8.632812 C 102.265625 8.476562 102.152344 8.347656 102 8.292969 L 99.792969 7.488281 C 99.710938 7.457031 99.65625 7.375 99.667969 7.289062 C 99.675781 7.199219 99.742188 7.128906 99.828125 7.117188 L 102.140625 6.746094 C 102.300781 6.722656 102.4375 6.617188 102.5 6.46875 C 102.566406 6.320312 102.546875 6.148438 102.457031 6.015625 L 101.144531 4.070312 C 101.097656 4 101.101562 3.902344 101.160156 3.835938 C 101.21875 3.773438 101.3125 3.753906 101.390625 3.792969 L 103.484375 4.859375 C 103.628906 4.929688 103.800781 4.925781 103.9375 4.84375 C 104.078125 4.761719 104.164062 4.613281 104.167969 4.453125 L 104.238281 2.117188 C 104.238281 2.03125 104.300781 1.957031 104.386719 1.9375 C 104.46875 1.917969 104.554688 1.960938 104.59375 2.039062 Z M 104.59375 2.039062 "/></clipPath><clipPath id="94395b3f61"><path d="M 0.597656 0.898438 L 12.945312 0.898438 L 12.945312 13 L 0.597656 13 Z M 0.597656 0.898438 "/></clipPath><clipPath id="bf6ea93618"><path d="M -0.289062 2.171875 L 11.046875 -0.363281 L 13.710938 11.546875 L 2.378906 14.085938 Z M -0.289062 2.171875 "/></clipPath><clipPath id="395e3c71a5"><path d="M 5.59375 1.039062 L 6.652344 3.121094 C 6.726562 3.261719 6.867188 3.359375 7.027344 3.375 C 7.1875 3.390625 7.347656 3.320312 7.445312 3.195312 L 8.882812 1.339844 C 8.9375 1.269531 9.03125 1.246094 9.113281 1.28125 C 9.191406 1.316406 9.238281 1.398438 9.226562 1.488281 L 8.867188 3.804688 C 8.84375 3.960938 8.902344 4.125 9.023438 4.230469 C 9.144531 4.335938 9.3125 4.375 9.464844 4.328125 L 11.714844 3.675781 C 11.800781 3.652344 11.890625 3.6875 11.933594 3.765625 C 11.980469 3.839844 11.96875 3.9375 11.90625 3.996094 L 10.253906 5.667969 C 10.136719 5.78125 10.089844 5.945312 10.125 6.105469 C 10.164062 6.261719 10.277344 6.390625 10.429688 6.445312 L 12.628906 7.234375 C 12.710938 7.265625 12.761719 7.347656 12.753906 7.433594 C 12.746094 7.519531 12.679688 7.589844 12.59375 7.601562 L 10.28125 7.972656 C 10.121094 8 9.988281 8.105469 9.921875 8.253906 C 9.859375 8.402344 9.875 8.570312 9.964844 8.707031 L 11.277344 10.648438 C 11.324219 10.71875 11.320312 10.816406 11.261719 10.882812 C 11.203125 10.949219 11.109375 10.964844 11.03125 10.925781 L 8.9375 9.863281 C 8.792969 9.789062 8.625 9.792969 8.484375 9.875 C 8.347656 9.957031 8.257812 10.105469 8.253906 10.265625 L 8.1875 12.601562 C 8.183594 12.6875 8.121094 12.761719 8.039062 12.78125 C 7.953125 12.800781 7.867188 12.757812 7.828125 12.683594 L 6.769531 10.601562 C 6.695312 10.457031 6.554688 10.359375 6.394531 10.34375 C 6.234375 10.328125 6.078125 10.398438 5.976562 10.523438 L 4.539062 12.378906 C 4.484375 12.449219 4.390625 12.472656 4.3125 12.4375 C 4.230469 12.402344 4.183594 12.320312 4.199219 12.234375 L 4.554688 9.917969 C 4.582031 9.757812 4.523438 9.597656 4.402344 9.488281 C 4.28125 9.382812 4.113281 9.34375 3.957031 9.390625 L 1.707031 10.042969 C 1.625 10.066406 1.535156 10.03125 1.488281 9.957031 C 1.445312 9.882812 1.457031 9.785156 1.519531 9.722656 L 3.171875 8.070312 C 3.285156 7.957031 3.335938 7.789062 3.300781 7.632812 C 3.265625 7.476562 3.152344 7.347656 3 7.292969 L 0.792969 6.488281 C 0.710938 6.457031 0.65625 6.375 0.667969 6.289062 C 0.675781 6.199219 0.742188 6.128906 0.828125 6.117188 L 3.140625 5.746094 C 3.300781 5.722656 3.4375 5.617188 3.5 5.46875 C 3.566406 5.320312 3.546875 5.148438 3.457031 5.015625 L 2.144531 3.070312 C 2.097656 3 2.101562 2.902344 2.160156 2.835938 C 2.21875 2.773438 2.3125 2.753906 2.390625 2.792969 L 4.484375 3.859375 C 4.628906 3.929688 4.800781 3.925781 4.9375 3.84375 C 5.078125 3.761719 5.164062 3.613281 5.167969 3.453125 L 5.238281 1.117188 C 5.238281 1.03125 5.300781 0.957031 5.386719 0.9375 C 5.46875 0.917969 5.554688 0.960938 5.59375 1.039062 Z M 5.59375 1.039062 "/></clipPath><clipPath id="e0f94c9c21"><rect x="0" width="13" y="0" height="13"/></clipPath></defs><g id="0ed8697620"><g clip-rule="nonzero" clip-path="url(#cb747973ac)"><g clip-rule="nonzero" clip-path="url(#daf6941f85)"><g transform="matrix(1,0,0,1,5,15)"><g clip-path="url(#b5484c0513)"><g clip-rule="nonzero" clip-path="url(#03658cc576)"><g clip-rule="nonzero" clip-path="url(#38355661ed)"><rect x="0" width="47" height="27" y="0" style="fill:#ffffff;fill-opacity:1;stroke:none;"/></g></g></g></g></g></g><g clip-rule="nonzero" clip-path="url(#a89b31324e)"><g clip-rule="nonzero" clip-path="url(#4a96a127ee)"><g transform="matrix(1,0,0,1,53,14)"><g clip-path="url(#7fac268292)"><g clip-rule="nonzero" clip-path="url(#9ef74719d4)"><g clip-rule="nonzero" clip-path="url(#5b47f8d2d7)"><rect x="0" width="7" height="25" y="0" style="fill:#ffffff;fill-opacity:1;stroke:none;"/></g></g></g></g></g></g><g clip-rule="nonzero" clip-path="url(#297272bd3c)"><g clip-rule="nonzero" clip-path="url(#a91a15eec2)"><g transform="matrix(1,0,0,1,60,9)"><g clip-path="url(#c855a50f9a)"><g clip-rule="nonzero" clip-path="url(#76249ee145)"><g clip-rule="nonzero" clip-path="url(#1e730e1d7b)"><rect x="0" width="23" height="29" y="0" style="fill:#ffffff;fill-opacity:1;stroke:none;"/></g></g></g></g></g></g><g clip-rule="nonzero" clip-path="url(#161bc7b025)"><g clip-rule="nonzero" clip-path="url(#86e042ec82)"><g transform="matrix(1,0,0,1,83,13)"><g clip-path="url(#48044e5682)"><g clip-rule="nonzero" clip-path="url(#1d6001adb7)"><g clip-rule="nonzero" clip-path="url(#0a9a981b03)"><rect x="0" width="17" height="19" y="0" style="fill:#ffffff;fill-opacity:1;stroke:none;"/></g></g></g></g></g></g><g clip-rule="nonzero" clip-path="url(#5e460d39fd)"><g clip-rule="nonzero" clip-path="url(#9187ea46bd)"><g transform="matrix(1,0,0,1,102,14)"><g clip-path="url(#e10cd291cc)"><g clip-rule="nonzero" clip-path="url(#2f3b494821)"><g clip-rule="nonzero" clip-path="url(#42617ec115)"><rect x="0" width="7" height="17" y="0" style="fill:#ffffff;fill-opacity:1;stroke:none;"/></g></g></g></g></g></g><g clip-rule="nonzero" clip-path="url(#aee64854c3)"><g clip-rule="nonzero" clip-path="url(#e7724761b1)"><g transform="matrix(1,0,0,1,110,13)"><g clip-path="url(#38703749a9)"><g clip-rule="nonzero" clip-path="url(#c4684f127c)"><g clip-rule="nonzero" clip-path="url(#accd5e0fe5)"><rect x="0" width="17" height="26" y="0" style="fill:#ffffff;fill-opacity:1;stroke:none;"/></g></g></g></g></g></g><g clip-rule="nonzero" clip-path="url(#506c5a8ee9)"><g clip-rule="nonzero" clip-path="url(#3f0438a566)"><g clip-rule="nonzero" clip-path="url(#376d211be9)"><g transform="matrix(1,0,0,1,99,1)"><g clip-path="url(#e0f94c9c21)"><g clip-rule="nonzero" clip-path="url(#94395b3f61)"><g clip-rule="nonzero" clip-path="url(#bf6ea93618)"><g clip-rule="nonzero" clip-path="url(#395e3c71a5)"><path style=" stroke:none;fill-rule:nonzero;fill:#ffffff;fill-opacity:1;" d="M -0.886719 1.753906 L 11.40625 -1 L 14.300781 11.917969 L 2.003906 14.671875 Z M -0.886719 1.753906 "/></g></g></g></g></g></g></g></g></g></svg>